<svg width="805" height="803" viewBox="0 0 805 803" fill="none" xmlns="http://www.w3.org/2000/svg">
<g clip-path="url(#clip0)">
<path d="M788.056 298.167C744.769 127.951 595.197 5.0783 419.631 0.149992C326.815 -2.45545 229.147 28.3275 158.037 136.048C30.9203 328.611 165.848 461.678 259.917 524.909C305.363 555.518 346.313 592.324 381.58 634.259C445.12 709.659 567.357 803.355 712.935 656.548C818.45 550.143 816.89 411.548 788.056 298.167Z" fill="#F2F2F2"/>
<path d="M392 802.861C608.496 802.861 784 780.699 784 753.361C784 726.023 608.496 703.861 392 703.861C175.504 703.861 0 726.023 0 753.361C0 780.699 175.504 802.861 392 802.861Z" fill="#3F3D56"/>
<path opacity="0.1" d="M392 778.861C584.195 778.861 740 763.316 740 744.139C740 724.963 584.195 709.418 392 709.418C199.805 709.418 44 724.963 44 744.139C44 763.316 199.805 778.861 392 778.861Z" fill="black"/>
<path d="M220.184 450.448H199.754V760.982H220.184V450.448Z" fill="#3F3D56"/>
<path d="M381.58 442.276V450.448L48.573 454.534V446.362L49.043 446.055L107.82 407.545H355.021L381.58 442.276Z" fill="#3F3D56"/>
<path d="M322.334 393.244C322.334 393.244 248.786 399.373 273.302 417.76C297.818 436.147 322.334 405.502 322.334 405.502V393.244Z" fill="#FFB9B9"/>
<path opacity="0.1" d="M381.58 442.521V450.448L48.573 454.534V446.362L49.043 446.055L381.58 442.521Z" fill="black"/>
<path d="M432.655 293.138L434.444 286.431C434.444 286.431 410.182 329.911 408.139 333.997C406.096 338.083 371.365 372.814 367.279 378.943C364.494 382.916 361.037 386.373 357.065 389.158H318.248C318.248 389.158 310.076 415.717 322.334 417.76C334.592 419.803 373.408 427.975 381.58 427.975C389.752 427.975 440.827 380.986 440.827 380.986L432.655 293.138Z" fill="#549FB4"/>
<path d="M440.827 589.371L428.569 760.982H440.827L455.128 585.285L440.827 589.371Z" fill="#3F3D56"/>
<path d="M589.965 568.941L577.707 740.552H589.965L604.266 564.855L589.965 568.941Z" fill="#3F3D56"/>
<path d="M612.438 589.371L600.18 760.982H612.438L626.739 585.285L612.438 589.371Z" fill="#3F3D56"/>
<path d="M422.44 573.027L410.182 744.638H422.44L436.741 568.941L422.44 573.027Z" fill="#3F3D56"/>
<path d="M659.427 354.427L624.696 603.672L418.354 595.5L419.743 572.496L422.44 528.081L581.793 536.253L608.352 354.427H659.427Z" fill="#3F3D56"/>
<path opacity="0.1" d="M659.427 354.427L624.696 603.672L418.354 595.5L419.743 572.496C462.81 574.151 608.352 564.855 608.352 564.855C608.352 532.249 636.995 404.603 648.558 354.427L659.427 354.427Z" fill="black"/>
<path d="M297.818 656.79C297.818 656.79 291.689 703.779 279.431 711.951C267.173 720.123 330.506 730.338 330.506 730.338L334.592 669.048L297.818 656.79Z" fill="#FFB9B9"/>
<path d="M504.16 677.22C504.16 677.22 514.375 689.478 516.418 697.65C518.461 705.822 549.106 709.908 549.106 709.908L571.578 685.392C571.578 685.392 542.977 660.876 534.805 660.876C526.633 660.876 504.16 677.22 504.16 677.22Z" fill="#FFB9B9"/>
<path d="M450.021 255.342C477.1 255.342 499.052 233.39 499.052 206.311C499.052 179.231 477.1 157.279 450.021 157.279C422.941 157.279 400.989 179.231 400.989 206.311C400.989 233.39 422.941 255.342 450.021 255.342Z" fill="#FFB9B9"/>
<path d="M436.741 240.02C436.741 240.02 461.257 287.009 457.171 295.181C453.085 303.353 510.289 256.364 510.289 256.364C510.289 256.364 489.859 223.676 489.859 213.461C489.859 203.246 436.741 240.02 436.741 240.02Z" fill="#FFB9B9"/>
<path d="M459.214 481.093C459.214 481.093 301.904 456.577 295.775 513.781C289.646 570.984 267.173 644.532 265.13 650.661C263.087 656.79 332.549 691.521 340.721 679.263C348.893 667.005 363.193 568.941 359.107 560.769C355.022 552.597 352.979 542.382 361.151 544.425C369.323 546.468 459.214 564.855 477.601 558.726C495.988 552.597 542.977 470.878 542.977 470.878L459.214 481.093Z" fill="#2F2E41"/>
<path opacity="0.1" d="M459.214 481.093C459.214 481.093 301.904 456.577 295.775 513.781C289.646 570.984 267.173 644.532 265.13 650.661C263.087 656.79 332.549 691.521 340.721 679.263C348.893 667.005 363.193 568.941 359.107 560.769C355.022 552.597 352.979 542.382 361.151 544.425C369.323 546.468 459.214 564.855 477.601 558.726C495.988 552.597 542.977 470.878 542.977 470.878L459.214 481.093Z" fill="black"/>
<path d="M455.128 468.835L461.257 519.91C461.257 519.91 363.193 556.683 399.967 615.93C436.741 675.177 477.601 707.865 477.601 707.865C477.601 707.865 542.977 671.091 542.977 660.876C542.977 650.661 463.3 593.457 473.515 593.457C483.73 593.457 630.825 585.285 600.18 503.566C569.536 421.846 455.128 468.835 455.128 468.835Z" fill="#2F2E41"/>
<path d="M295.775 713.994C295.775 713.994 279.431 695.607 279.431 699.693C279.431 703.779 232.442 728.295 224.27 730.338C216.098 732.381 203.84 736.467 220.184 742.596C236.528 748.724 340.721 750.768 340.721 746.682C340.721 742.596 344.807 703.779 336.635 707.865C328.463 711.951 297.818 722.166 295.775 713.994Z" fill="#2F2E41"/>
<path d="M536.848 699.693C536.848 699.693 514.375 693.564 512.332 699.693C510.289 705.822 508.246 730.338 489.859 738.51C471.472 746.681 465.343 758.939 489.859 760.982C514.375 763.025 581.793 716.037 581.793 707.865C581.793 699.693 573.621 675.177 569.535 677.22C565.449 679.263 555.235 697.65 536.848 699.693Z" fill="#2F2E41"/>
<path d="M256.958 726.252H162.98V763.025H256.958V726.252Z" fill="#3F3D56"/>
<path d="M510.289 244.106C510.289 244.106 502.642 223.656 489.1 235.924C475.558 248.192 448.999 278.837 448.999 278.837C448.999 278.837 432.655 284.966 426.526 295.181C420.397 305.396 420.397 372.814 432.655 395.287C444.913 417.76 444.913 456.577 448.999 466.792C453.085 477.007 448.999 487.222 463.3 487.222C477.601 487.222 455.128 470.878 502.117 487.222C549.106 503.566 602.223 523.996 606.309 509.695C610.395 495.394 600.18 487.222 606.309 481.093C612.438 474.964 606.309 472.921 602.223 458.62C598.137 444.319 594.051 442.276 592.008 423.889C589.965 405.502 592.008 387.115 587.922 378.943C583.836 370.771 583.836 358.513 583.836 338.083C583.836 317.654 571.578 276.794 549.106 264.536C526.633 252.278 510.289 244.106 510.289 244.106Z" fill="#549FB4"/>
<path d="M402.145 151.789C413.534 140.672 425.503 129.197 440.663 124.355C460.898 117.893 483.456 124.674 500.876 136.829C504.634 139.451 508.314 142.42 510.573 146.408C512.644 150.065 513.369 154.31 514.025 158.462C516.338 173.082 518.234 187.899 517.103 202.658C515.972 217.417 511.62 232.252 502.531 243.935C494.473 235.326 488.288 225.137 484.369 214.015C483.335 211.072 482.405 207.97 480.315 205.654C478.225 203.338 474.546 202.091 471.923 203.78C468.278 206.126 468.736 212.392 464.887 214.387C463.57 214.984 462.094 215.139 460.681 214.828C450.648 213.099 447.154 200.806 440.624 192.995C431 181.482 417.525 182.21 404.372 178.902C389.109 175.062 392.888 160.825 402.145 151.789Z" fill="black"/>
<path d="M319.172 428.641C342.366 428.641 361.168 424.553 361.168 419.511C361.168 414.469 342.366 410.382 319.172 410.382C295.979 410.382 277.177 414.469 277.177 419.511C277.177 424.553 295.979 428.641 319.172 428.641Z" fill="#549FB4"/>
<path d="M315.725 420.535L314.903 377.066C314.72 367.341 315.067 356.319 322.297 349.813C326.865 345.701 333.734 343.934 336.6 338.498C338.162 335.536 338.191 332.035 338.184 328.687L338.069 269.516" stroke="#549FB4" stroke-width="6" stroke-miterlimit="10"/>
<path d="M338.561 250.92H335.085C330.666 250.92 327.085 254.502 327.085 258.92V280.655C327.085 285.073 330.666 288.655 335.085 288.655H338.561C342.979 288.655 346.561 285.073 346.561 280.655V258.92C346.561 254.502 342.979 250.92 338.561 250.92Z" fill="#549FB4"/>
<path d="M392.92 410.951C392.92 410.951 325.207 392.99 319.684 408.44C314.162 423.889 377.494 438.19 377.494 438.19H404.053L392.92 410.951Z" fill="#FFB9B9"/>
<path d="M534.805 276.794C534.805 276.794 504.16 299.267 495.988 331.954C487.816 364.642 481.687 399.373 481.687 399.373L387.709 411.631C387.709 411.631 379.537 444.319 391.795 446.362C404.053 448.405 495.988 454.534 510.289 446.362C524.59 438.19 573.621 336.04 571.579 325.825C569.536 315.611 565.45 278.837 534.805 276.794Z" fill="#549FB4"/>
<path d="M168.556 422.058L201.752 424.722L249.087 421.648L248.263 421.57L204.416 417.345C194.375 413.657 201.342 391.936 201.342 391.936L167.745 393.645L165.073 393.78C153.188 421.648 168.556 422.058 168.556 422.058Z" fill="#D1D9EC"/>
<path opacity="0.1" d="M168.556 422.058L201.752 424.722L249.087 421.648L248.263 421.57L200.42 423.288L168.351 419.804C159.253 417.411 164.462 401.612 167.745 393.645L165.073 393.78C153.188 421.648 168.556 422.058 168.556 422.058Z" fill="black"/>
<path d="M113.536 223.698L123.478 367.858V385.257C123.781 389.63 125.86 397.243 130.245 397.214L138.391 390.228H285.037C287.561 390.212 279.073 386.527 278.823 384.014L289.107 378.645L278.345 272.938C278.175 271.269 277.531 269.682 276.49 268.366C275.449 267.05 274.053 266.058 272.468 265.508L126.778 215.059C121.819 213.341 116.774 213.952 113.619 216.575C111.455 218.374 113.286 220.108 113.536 223.698Z" fill="#4C4C56"/>
<path d="M120.578 370.375L121.91 389.489C122.055 391.596 122.999 393.568 124.547 395.003C126.096 396.438 128.134 397.229 130.245 397.214L133.327 397.194L286.185 396.268C286.781 396.264 287.37 396.135 287.914 395.891C288.458 395.646 288.945 395.29 289.344 394.847C289.743 394.403 290.045 393.881 290.23 393.315C290.416 392.748 290.481 392.148 290.422 391.555L289.107 378.645L120.578 370.375Z" fill="#DFE6F5"/>
<path d="M223.063 390.297C224.195 390.297 225.112 388.462 225.112 386.198C225.112 383.935 224.195 382.1 223.063 382.1C221.931 382.1 221.014 383.935 221.014 386.198C221.014 388.462 221.931 390.297 223.063 390.297Z" fill="white"/>
<path d="M148.229 426.853C148.229 426.853 106.427 411.074 95.1569 422.549C95.1569 422.549 93.3127 426.033 100.894 426.853L131.53 429.312C131.53 429.312 144.131 430.541 148.229 426.853Z" fill="#D1D9EC"/>
<path d="M147.114 422.748C138.902 419.394 114.182 410.713 98.367 420.318C98.367 420.318 115.868 418.379 125.484 423.938C135.101 429.497 148.229 426.853 148.229 426.853L148.426 426.503C148.61 426.175 148.723 425.812 148.756 425.437C148.789 425.062 148.742 424.685 148.617 424.33C148.493 423.974 148.295 423.65 148.036 423.377C147.777 423.104 147.462 422.89 147.114 422.748V422.748Z" fill="#DFE6F5"/>
<path d="M110.43 224.71L121.91 389.489C122.055 391.596 122.999 393.568 124.547 395.003C126.096 396.438 128.134 397.229 130.245 397.214L133.327 397.194C131.214 395.172 129.413 392.848 127.983 390.297C127.983 390.297 116.713 224.726 115.893 220.628C115.534 219.089 114.745 217.683 113.619 216.575C112.46 217.565 111.563 218.825 111.007 220.244C110.451 221.663 110.253 223.196 110.43 224.71V224.71Z" fill="#DFE6F5"/>
<path opacity="0.1" d="M110.43 224.71L121.91 389.489C122.055 391.596 122.999 393.568 124.547 395.003C126.096 396.438 128.134 397.229 130.245 397.214L133.327 397.194C131.214 395.172 129.413 392.848 127.983 390.297C127.983 390.297 116.713 224.726 115.893 220.628C115.534 219.089 114.745 217.683 113.619 216.575C112.46 217.565 111.563 218.825 111.007 220.244C110.451 221.663 110.253 223.196 110.43 224.71V224.71Z" fill="black"/>
</g>
<defs>
<clipPath id="clip0">
<rect width="804.887" height="802.861" fill="white"/>
</clipPath>
</defs>
</svg>
