<svg width="30" height="30" viewBox="0 0 30 30" fill="none" xmlns="http://www.w3.org/2000/svg">
<path d="M6.25008 13.7304C6.25008 15.4564 4.85092 16.8553 3.12492 16.8553C1.39915 16.8553 0 15.4564 0 13.7304C0 12.0044 1.39915 10.6055 3.12492 10.6055C4.85092 10.6055 6.25008 12.0044 6.25008 13.7304Z" fill="#FF5733"/>
<path d="M29.3749 14.3555H9.375C9.03006 14.3555 8.74992 14.0753 8.74992 13.7304C8.74992 13.3854 9.03006 13.1053 9.375 13.1053H29.3749C29.7201 13.1053 30 13.3854 30 13.7304C30 14.0753 29.7201 14.3555 29.3749 14.3555Z" fill="#808080"/>
<path d="M3.12492 16.8553C1.40259 16.8553 0 15.4529 0 13.7304C0 12.0079 1.40259 10.6055 3.12492 10.6055C4.84749 10.6055 6.25008 12.0079 6.25008 13.7304C6.25008 15.4529 4.84749 16.8553 3.12492 16.8553ZM3.12492 11.8554C2.09129 11.8554 1.24992 12.6966 1.24992 13.7304C1.24992 14.7643 2.09129 15.6054 3.12492 15.6054C4.15879 15.6054 4.99992 14.7643 4.99992 13.7304C4.99992 12.6966 4.15879 11.8554 3.12492 11.8554Z" fill="#808080"/>
</svg>
